<?xml version="1.0" encoding="UTF-8"?>
<svg width="1024px" height="1024px" viewBox="0 0 1024 1024" version="1.1" xmlns="http://www.w3.org/2000/svg" xmlns:xlink="http://www.w3.org/1999/xlink">
    <!-- Generator: Sketch 43.1 (39012) - http://www.bohemiancoding.com/sketch -->
    <title>close</title>
    <desc>Created with Sketch.</desc>
    <defs></defs>
    <g id="Page-1" stroke="none" stroke-width="1" fill="none" fill-rule="evenodd">
        <g id="close">
            <rect id="Rectangle" x="0" y="0" width="1024" height="1024"></rect>
            <path d="M512,42 C252.874525,42 42,252.746876 42,512 C42,771.253124 252.874525,982 512,982 C771.125475,982 982,771.253123 982,512 C982,252.746877 771.253123,42 512,42 L512,42 Z M512,950.598588 C270.107008,950.598588 73.4014121,753.765345 73.4014121,512 C73.4014121,270.107008 270.234655,73.2737637 512,73.2737637 C753.892992,73.2737637 950.726236,270.107006 950.726236,511.872352 C950.726235,753.892992 753.892992,950.598588 512,950.598588 L512,950.598588 Z M537.657251,511.106463 L745.978816,302.019011 C752.74416,295.253666 752.74416,284.020641 745.978816,277.255295 C739.213471,270.362302 728.108093,270.362302 721.342748,277.255295 L512,487.363933 L302.784899,277.255296 C296.019555,270.362303 284.914176,270.362303 278.148832,277.255296 C271.383487,284.148289 271.383487,295.126019 278.148832,302.019012 L486.470396,511.106464 L278.148832,720.321564 C271.383487,727.214557 271.383487,738.192287 278.148832,745.08528 C284.914176,751.978273 296.019555,751.978273 302.784899,745.08528 L512,534.976644 L721.215101,745.08528 C727.980445,751.978273 739.085824,751.978273 745.851168,745.08528 C752.616513,738.192287 752.616513,727.214557 745.851168,720.321564 L537.657251,511.106463 L537.657251,511.106463 Z" id="Shape" fill="#000000" fill-rule="nonzero"></path>
        </g>
    </g>
</svg>