<?xml version="1.0" encoding="UTF-8"?>
<svg width="1024px" height="1024px" viewBox="0 0 1024 1024" version="1.1" xmlns="http://www.w3.org/2000/svg" xmlns:xlink="http://www.w3.org/1999/xlink">
    <!-- Generator: Sketch 43.1 (39012) - http://www.bohemiancoding.com/sketch -->
    <title>close</title>
    <desc>Created with Sketch.</desc>
    <defs></defs>
    <g id="Page-1" stroke="none" stroke-width="1" fill="none" fill-rule="evenodd">
        <g id="close">
            <rect id="Rectangle" x="0" y="0" width="1024" height="1024"></rect>
            <path d="M613.035372,512.408578 L957.92473,167.51922 C963.288981,162.155868 963.287181,153.45932 957.92293,148.096868 L876.836432,67.0076689 C871.47038,61.6443171 862.777431,61.6434175 857.411379,67.0067693 L512.523003,411.896323 L166.654875,66.0285882 C161.286124,60.6571373 152.578776,60.6571373 147.209125,66.0285882 L66.0272381,147.211375 C60.6575873,152.580126 60.6575873,161.285674 66.0272381,166.657125 L411.894892,512.524778 L67.0081198,857.412728 C61.644768,862.77788 61.644768,871.471729 67.0081198,876.83508 L148.096418,957.924279 C153.45977,963.289431 162.157218,963.289431 167.51967,957.924279 L512.407032,613.036918 L857.343888,957.973774 C862.715339,963.343425 871.420886,963.342525 876.790537,957.972874 L957.971524,876.790087 C963.342075,871.421336 963.342975,862.713988 957.973324,857.346137 L613.035372,512.408578 Z" id="Combined-Shape" fill="#000000" fill-rule="nonzero"></path>
        </g>
    </g>
</svg>