<?xml version="1.0" encoding="UTF-8"?>
<svg width="1024px" height="1024px" viewBox="0 0 1024 1024" version="1.1" xmlns="http://www.w3.org/2000/svg" xmlns:xlink="http://www.w3.org/1999/xlink">
    <!-- Generator: Sketch 43.1 (39012) - http://www.bohemiancoding.com/sketch -->
    <title>Command</title>
    <desc>Created with Sketch.</desc>
    <defs></defs>
    <g id="Page-1" stroke="none" stroke-width="1" fill="none" fill-rule="evenodd">
        <g id="Command">
            <rect id="Rectangle" x="0" y="0" width="1024" height="1024"></rect>
            <path d="M781.6,64 C831.1144,64 873.393,81.5213999 908.4358,116.5642 C943.4786,151.607 961,193.8856 961,243.4 C961,292.9144 943.4786,335.193 908.4358,370.2358 C873.393,405.2786 831.1144,422.8 781.6,422.8 L691.9,422.8 L691.9,602.2 L781.6,602.2 C831.1144,602.2 873.393,619.7214 908.4358,654.7642 C943.4786,689.807 961,732.0856 961,781.6 C961,831.1144 943.4786,873.393 908.4358,908.4358 C873.393,943.4786 831.1144,961 781.6,961 C732.0856,961 689.807,943.4786 654.7642,908.4358 C619.7214,873.393 602.2,831.1144 602.2,781.6 L602.2,691.9 L422.8,691.9 L422.8,781.6 C422.8,831.1144 405.2786,873.393 370.2358,908.4358 C335.193,943.4786 292.9144,961 243.4,961 C193.8856,961 151.607,943.4786 116.5642,908.4358 C81.5213999,873.393 64,831.1144 64,781.6 C64,732.0856 81.5213999,689.807 116.5642,654.7642 C151.607,619.7214 193.8856,602.2 243.4,602.2 L333.1,602.2 L333.1,422.8 L243.4,422.8 C193.8856,422.8 151.607,405.2786 116.5642,370.2358 C81.5213999,335.193 64,292.9144 64,243.4 C64,193.8856 81.5213999,151.607 116.5642,116.5642 C151.607,81.5213999 193.8856,64 243.4,64 C292.9144,64 335.193,81.5213999 370.2358,116.5642 C405.2786,151.607 422.8,193.8856 422.8,243.4 L422.8,333.1 L602.2,333.1 L602.2,243.4 C602.2,193.8856 619.7214,151.607 654.7642,116.5642 C689.807,81.5213999 732.0856,64 781.6,64 L781.6,64 Z M333.099999,781.600002 L333.099999,691.900002 L243.399999,691.900002 C218.642799,691.900002 197.503498,700.660703 179.982098,718.182103 C162.460698,735.703503 153.699998,756.842803 153.699998,781.600003 C153.699998,806.357203 162.460698,827.496504 179.982098,845.017904 C197.503498,862.539304 218.642799,871.300004 243.399999,871.300004 C268.157199,871.300004 289.296499,862.539304 306.817899,845.017904 C324.3393,827.496504 333.1,806.357203 333.1,781.600003 L333.099999,781.600002 Z M243.399999,153.700001 C218.642799,153.700001 197.503498,162.460701 179.982098,179.982101 C162.460698,197.503502 153.699998,218.642802 153.699998,243.400002 C153.699998,268.157202 162.460698,289.296502 179.982098,306.817902 C197.503498,324.339303 218.642799,333.100003 243.399999,333.100003 L333.099999,333.100003 L333.099999,243.400003 C333.099999,218.642803 324.339298,197.503503 306.817898,179.982102 C289.296498,162.460702 268.157198,153.700002 243.399998,153.700002 L243.399999,153.700001 Z M602.199999,602.200001 L602.199999,422.800001 L422.799999,422.800001 L422.799999,602.200001 L602.199999,602.200001 Z M781.6,691.900002 L691.9,691.900002 L691.9,781.600002 C691.9,806.357202 700.6607,827.496503 718.182101,845.017903 C735.703501,862.539303 756.842801,871.300003 781.600001,871.300003 C806.357201,871.300003 827.496502,862.539303 845.017902,845.017903 C862.539302,827.496503 871.300002,806.357202 871.300002,781.600002 C871.300002,756.842802 862.539302,735.703502 845.017902,718.182102 C827.496502,700.660702 806.357201,691.900001 781.600001,691.900001 L781.6,691.900002 Z M781.6,153.700001 C756.8428,153.700001 735.7035,162.460701 718.1821,179.982101 C700.660699,197.503502 691.899999,218.642802 691.899999,243.400002 L691.899999,333.100002 L781.599999,333.100002 C806.357199,333.100002 827.496499,324.339302 845.0179,306.817901 C862.5393,289.296501 871.3,268.157201 871.3,243.400001 C871.3,218.642801 862.5393,197.503501 845.0179,179.9821 C827.496499,162.4607 806.357199,153.7 781.599999,153.7 L781.6,153.700001 Z" id="Shape" fill="#000000" fill-rule="nonzero"></path>
        </g>
    </g>
</svg>