<?xml version="1.0" encoding="UTF-8"?>
<svg width="1024px" height="1024px" viewBox="0 0 1024 1024" version="1.1" xmlns="http://www.w3.org/2000/svg" xmlns:xlink="http://www.w3.org/1999/xlink">
    <!-- Generator: Sketch 43.1 (39012) - http://www.bohemiancoding.com/sketch -->
    <title>history-dark</title>
    <desc>Created with Sketch.</desc>
    <defs></defs>
    <g id="Page-1" stroke="none" stroke-width="1" fill="none" fill-rule="evenodd">
        <g id="history">
            <rect id="Rectangle" x="0" y="0" width="1024" height="1024"></rect>
            <g transform="translate(31.000000, 31.000000)" id="Shape" fill-rule="nonzero" fill="#FFFFFF">
                <path d="M481.368813,962.737626 C215.944289,962.737626 0,746.793337 0,481.368813 C0,215.944289 215.944289,0 481.368813,0 C746.793337,0 962.737626,215.944289 962.737626,481.368813 C962.737626,746.793337 746.793337,962.737626 481.368813,962.737626 Z M481.368813,67.1677415 C252.976103,67.1677415 67.1677415,252.976103 67.1677415,481.368813 C67.1677415,709.761523 252.976103,895.569885 481.368813,895.569885 C709.761523,895.569885 895.569885,709.761523 895.569885,481.368813 C895.569885,252.976103 709.761523,67.1677415 481.368813,67.1677415 Z"></path>
                <path d="M601.419956,666.281605 C592.822485,666.281605 584.225014,663.012775 577.664965,656.452726 L463.927589,542.73774 C457.636211,536.446361 454.098709,527.893669 454.098709,518.982748 L454.09871,224.832819 C454.09871,206.272133 469.121895,191.248949 487.682581,191.248949 C506.220878,191.248949 521.266452,206.272133 521.266452,224.832819 L521.266452,505.079025 L625.174948,608.965132 C638.295046,622.085231 638.295046,643.332626 625.174948,656.452726 C618.614898,662.990386 610.017427,666.281605 601.419956,666.281605 Z"></path>
            </g>
        </g>
    </g>
</svg>