<?xml version="1.0" encoding="UTF-8"?>
<svg width="1024px" height="1024px" viewBox="0 0 1024 1024" version="1.1" xmlns="http://www.w3.org/2000/svg" xmlns:xlink="http://www.w3.org/1999/xlink">
    <!-- Generator: Sketch 43.1 (39012) - http://www.bohemiancoding.com/sketch -->
    <title>setting-dark</title>
    <desc>Created with Sketch.</desc>
    <defs></defs>
    <g id="Page-1" stroke="none" stroke-width="1" fill="none" fill-rule="evenodd">
        <g id="setting">
            <rect id="Rectangle" x="0" y="0" width="1024" height="1024"></rect>
            <path d="M996.278857,431.835429 L920.502857,412.891429 C908.214857,409.819429 898.340571,400.603429 894.537143,388.608 C887.808,367.835429 879.542857,347.721143 869.741714,328.630857 C863.963428,317.44 864.402285,303.981714 870.985143,293.083428 L911.140572,226.157714 C919.771429,211.821714 917.577143,193.389714 905.654858,181.540571 L842.605715,118.418285 C830.756572,106.495999 812.324572,104.301714 797.915429,112.932571 L730.916572,153.161142 C720.018286,159.597714 706.486857,160.036571 695.296,154.258286 C676.132571,144.457143 656.091429,136.118857 635.318857,129.462857 C623.250286,125.659428 614.107428,115.785143 611.035428,103.570286 L592.091429,27.721143 C587.995429,11.410286 573.366857,0 556.544,0 L467.456,0 C450.706286,0 436.004571,11.410286 431.981714,27.721143 L412.964571,103.497143 C409.892571,115.712 400.749714,125.659429 388.608,129.462857 C367.835429,136.192 347.721143,144.530286 328.630857,154.331428 C317.366857,160.036571 303.908571,159.597714 293.083429,153.088 L226.157714,112.932571 C211.821714,104.301714 193.389714,106.569142 181.540571,118.418285 L118.418286,181.467429 C106.569143,193.389714 104.301714,211.821714 112.932571,226.230857 L153.088,293.083428 C159.597714,303.908571 160.036571,317.366857 154.331429,328.630857 C144.457143,347.794286 136.118857,367.835429 129.462857,388.681143 C125.586286,400.676572 115.712,409.892572 103.570286,412.964572 L27.721143,431.908571 C11.410286,436.004571 0,450.633143 0,467.456 L0,556.617143 C0,573.366857 11.410286,588.068572 27.721143,592.091429 L103.497143,611.108572 C115.712,614.107429 125.586286,623.250286 129.462857,635.392 C136.192,656.164571 144.457143,676.278857 154.331428,695.369143 C160.036571,706.56 159.597714,720.018286 153.088,730.916571 L112.932571,797.842285 C104.301714,812.105142 106.569142,830.610285 118.418285,842.459428 L181.467428,905.508571 C193.316571,917.430857 211.748571,919.625142 226.084571,910.994285 L293.010285,870.838856 C303.835428,864.329142 317.293714,863.890285 328.557714,869.595427 C347.721143,879.469713 367.762285,887.734856 388.534857,894.463998 C400.603428,898.340569 409.819428,908.141712 412.818286,920.356569 L431.762286,996.132569 C435.931429,1012.58971 450.56,1024 467.382857,1024 L556.617143,1024 C573.366857,1024 588.068572,1012.58971 592.091429,996.278857 L611.035429,920.502857 C614.107429,908.288 623.323429,898.413714 635.392,894.610286 C656.164571,887.881143 676.278857,879.616 695.369143,869.741715 C706.633143,864.036572 720.091429,864.475429 730.916572,870.985144 L797.769143,911.140573 C812.178286,919.77143 830.610286,917.577144 842.459429,905.728002 L905.508572,842.605716 C917.430858,830.756573 919.625143,812.25143 910.994286,797.91543 L870.838857,730.989716 C864.329143,720.164573 863.817143,706.706287 869.595428,695.51543 C879.396571,676.278859 887.734857,656.310859 894.390857,635.538287 C898.267428,623.469716 908.141714,614.253716 920.356571,611.181716 L996.132571,592.237716 C1012.58971,587.995429 1024,573.366857 1024,556.544 L1024,467.382857 C1024,450.56 1012.58971,435.931429 996.278857,431.835429 Z M512,731.428571 C390.802286,731.428571 292.571429,633.197714 292.571429,512 C292.571429,390.802286 390.802286,292.571429 512,292.571429 C633.197714,292.571429 731.428571,390.802286 731.428571,512 C731.428571,633.197714 633.197714,731.428571 512,731.428571 Z" id="Shape" fill="#FFFFFF" fill-rule="nonzero"></path>
        </g>
    </g>
</svg>