<?xml version="1.0" encoding="UTF-8"?>
<svg width="1024px" height="1024px" viewBox="0 0 1024 1024" version="1.1" xmlns="http://www.w3.org/2000/svg" xmlns:xlink="http://www.w3.org/1999/xlink">
    <!-- Generator: Sketch 43.1 (39012) - http://www.bohemiancoding.com/sketch -->
    <title>user-dark</title>
    <desc>Created with Sketch.</desc>
    <defs></defs>
    <g id="Page-1" stroke="none" stroke-width="1" fill="none" fill-rule="evenodd">
        <g id="user">
            <rect id="Rectangle" x="0" y="0" width="1024" height="1024"></rect>
            <path d="M959.711,865.276 C959.711,880.948 956.915,896.173 952.345,911.069 C816.438,965.748 657.246,997.263 487.005,997.263 C340.846,997.263 202.926,973.919 80.791,932.802 C70.815,911.248 65,888.672 65,865.276 C65,746.88 201.727,647.177 388.454,615.937 C309.189,554.451 255.388,434.705 255.388,297.007 C255.388,96.563 369.389,28 510.016,28 C650.65,28 764.652,96.562 764.652,297.007 C764.652,434.288 711.155,553.682 632.279,615.385 C821.017,645.833 959.713,746.031 959.713,865.275 L959.711,865.276 Z M639.814,645.185 C602.832,668.484 557.903,682.314 509.328,682.314 C462.863,682.314 419.685,669.669 383.643,648.19 C382.853,650.852 382.301,653.529 382.301,656.339 C382.301,689.367 440.472,716.081 512.228,716.081 C583.984,716.081 642.155,689.368 642.155,656.339 C642.154,652.441 641.296,648.788 639.813,645.186 L639.814,645.185 Z" id="Shape" fill="#FFFFFF" fill-rule="nonzero"></path>
        </g>
    </g>
</svg>